HIERARCHY
ROOT Hips
{
    OFFSET 0.000000 0.000000 0.000000
    CHANNELS 6 Xposition Yposition Zposition Zrotation Xrotation Yrotation
    JOINT Spine
    {
        OFFSET -0.000000 14.517291 0.000000
        CHANNELS 3 Zrotation Xrotation Yrotation
        JOINT Spine1
        {
            OFFSET -0.000000 37.558300 0.000000
            CHANNELS 3 Zrotation Xrotation Yrotation
            JOINT Neck
            {
                OFFSET -0.000000 37.404057 3.400369
                CHANNELS 3 Zrotation Xrotation Yrotation
                JOINT Head
                {
                    OFFSET -0.000000 24.785618 -3.540803
                    CHANNELS 3 Zrotation Xrotation Yrotation
                    End Site
                    {
                        OFFSET -0.000000 35.408028 0.000000
                    }
                }
            }
            JOINT LeftShoulder
            {
                OFFSET 6.992933 33.973492 -0.192664
                CHANNELS 3 Zrotation Xrotation Yrotation
                JOINT LeftArm
                {
                    OFFSET 21.527611 0.000000 0.000000
                    CHANNELS 3 Zrotation Xrotation Yrotation
                    JOINT LeftForeArm
                    {
                        OFFSET 56.353916 0.000000 0.000000
                        CHANNELS 3 Zrotation Xrotation Yrotation
                        JOINT LeftHand
                        {
                            OFFSET 47.774071 0.000000 0.000000
                            CHANNELS 3 Zrotation Xrotation Yrotation
                            End Site
                            {
                                OFFSET 26.556021 0.000000 0.000000
                            }
                        }
                    }
                }
            }
            JOINT RightShoulder
            {
                OFFSET -7.065357 33.973492 -0.192664
                CHANNELS 3 Zrotation Xrotation Yrotation
                JOINT RightArm
                {
                    OFFSET -21.527611 0.000000 0.000000
                    CHANNELS 3 Zrotation Xrotation Yrotation
                    JOINT RightForeArm
                    {
                        OFFSET -56.353916 0.000000 0.000000
                        CHANNELS 3 Zrotation Xrotation Yrotation
                        JOINT RightHand
                        {
                            OFFSET -47.774071 0.000000 0.000000
                            CHANNELS 3 Zrotation Xrotation Yrotation
                            End Site
                            {
                                OFFSET -26.556021 0.000000 0.000000
                            }
                        }
                    }
                }
            }
        }
    }
    JOINT LeftUpLeg
    {
        OFFSET 17.704014 0.000000 0.000000
        CHANNELS 3 Zrotation Xrotation Yrotation
        JOINT LeftLeg
        {
            OFFSET -0.000000 -81.181816 0.000000
            CHANNELS 3 Zrotation Xrotation Yrotation
            JOINT LeftFoot
            {
                OFFSET -0.000000 -62.821102 0.000000
                CHANNELS 3 Zrotation Xrotation Yrotation
                JOINT LeftToeBase
                {
                    OFFSET -0.000000 -11.507608 26.556021
                    CHANNELS 3 Zrotation Xrotation Yrotation
                    End Site
                    {
                        OFFSET -0.000000 0.000000 7.081605
                    }
                }
            }
        }
    }
    JOINT RightUpLeg
    {
        OFFSET -17.704014 0.000000 0.000000
        CHANNELS 3 Zrotation Xrotation Yrotation
        JOINT RightLeg
        {
            OFFSET -0.000000 -81.181816 0.000000
            CHANNELS 3 Zrotation Xrotation Yrotation
            JOINT RightFoot
            {
                OFFSET -0.000000 -62.821102 0.000000
                CHANNELS 3 Zrotation Xrotation Yrotation
                JOINT RightToeBase
                {
                    OFFSET -0.000000 -11.507608 26.556021
                    CHANNELS 3 Zrotation Xrotation Yrotation
                    End Site
                    {
                        OFFSET -0.000000 0.000000 7.081605
                    }
                }
            }
        }
    }
}
MOTION
Frames:    9
Frame Time:    0.008333
15.184840    155.339951    -106.188034    0.578258    -9.601412    46.920082    -4.171619    1.939499    -3.795992    -2.594330    2.442127    -1.234341    2.378754    6.459802    -17.956337    17.985918    0.952124    -16.585405    6.238142    5.427442    -21.670238    -27.448561    6.321905    -77.454910    14.928409    -58.426037    -114.721779    -17.123831    -40.833000    -24.825974    -0.699003    6.112670    -4.534240    31.649364    -12.408053    49.802151    -25.800400    -13.973278    64.258820    -12.446516    -1.748965    37.411522    20.309572    -4.265340    -2.112175    -14.857720    38.283688    -18.393864    6.415868    -26.932276    42.261356    0.000000    0.000000    0.000000    -17.658878    -13.257782    -15.349838    14.033411    32.767368    -15.987607    12.322019    3.402316    -20.539169    0.000000    0.000000    0.000000    
15.175878    155.337479    -106.195496    0.568906    -9.597073    46.918980    -4.175078    1.933753    -3.804334    -2.577852    2.444399    -1.237368    2.371423    6.456724    -17.960274    17.987955    0.924102    -16.584293    6.234661    5.428634    -21.672771    -27.463577    6.334102    -77.427490    14.813663    -58.350143    -114.819084    -17.165073    -40.822613    -24.855728    -0.706247    6.111712    -4.536429    31.649622    -12.409810    49.792973    -25.786537    -13.961527    64.277512    -12.434666    -1.737111    37.418987    20.319744    -4.278172    -2.104696    -14.869830    38.283691    -18.394667    6.418047    -26.935944    42.256603    0.000000    0.000000    0.000000    -17.659300    -13.266273    -15.342708    14.044515    32.760441    -15.994365    12.330281    3.394691    -20.537037    0.000000    0.000000    0.000000    
15.167199    155.335815    -106.202629    0.560287    -9.598854    46.920403    -4.167280    1.934736    -3.813449    -2.579184    2.441744    -1.240366    2.398054    6.454503    -17.964325    17.958763    0.889071    -16.589397    6.245957    5.429662    -21.675451    -27.446732    6.364065    -77.405304    14.750262    -58.326946    -114.864021    -17.220953    -40.838291    -24.898252    -0.701047    6.106687    -4.544884    31.647291    -12.404379    49.789124    -25.779921    -13.949123    64.277657    -12.422392    -1.722421    37.402054    20.329853    -4.292325    -2.087419    -14.871167    38.294449    -18.381611    6.415184    -26.933916    42.233437    0.000000    0.000000    0.000000    -17.653223    -13.271303    -15.344561    14.053890    32.750710    -15.999134    12.314959    3.406264    -20.543015    0.000000    0.000000    0.000000    
15.157773    155.333191    -106.211456    0.557571    -9.595572    46.914688    -4.177847    1.940443    -3.813644    -2.560796    2.437817    -1.241023    2.404969    6.464182    -17.971258    17.957100    0.837509    -16.589277    6.248577    5.428857    -21.680365    -27.432209    6.396370    -77.378166    14.696589    -58.302464    -114.901070    -17.333172    -40.831009    -24.958086    -0.700229    6.111056    -4.563972    31.653109    -12.417578    49.804058    -25.756813    -13.932878    64.277763    -12.389420    -1.713646    37.433044    20.335239    -4.296359    -2.057638    -14.865924    38.294891    -18.398430    6.426547    -26.926403    42.223454    0.000000    0.000000    0.000000    -17.652353    -13.281661    -15.338852    14.053556    32.748215    -16.015238    12.311456    3.408947    -20.532270    0.000000    0.000000    0.000000    
15.154013    155.329544    -106.217636    0.563209    -9.598135    46.918053    -4.180639    1.942897    -3.824628    -2.558324    2.450196    -1.244515    2.408083    6.465504    -17.967920    17.959585    0.802209    -16.580181    6.255542    5.433357    -21.683071    -27.415180    6.418609    -77.349327    14.651356    -58.284706    -114.928513    -17.456839    -40.825146    -25.008961    -0.693825    6.097376    -4.568517    31.646521    -12.421381    49.797020    -25.744467    -13.907698    64.280602    -12.394452    -1.695387    37.420982    20.335295    -4.295642    -2.036934    -14.857830    38.304569    -18.400000    6.395514    -26.949921    42.201424    0.000000    0.000000    0.000000    -17.659843    -13.273584    -15.333072    14.076902    32.738926    -16.021481    12.293436    3.405687    -20.550119    0.000000    0.000000    0.000000    
15.145546    155.326920    -106.224609    0.559306    -9.591429    46.914722    -4.197781    1.939782    -3.824998    -2.534354    2.454537    -1.245128    2.427716    6.474172    -17.973846    17.946423    0.747349    -16.581215    6.256552    5.426409    -21.691689    -27.403904    6.454466    -77.321198    14.625478    -58.260391    -114.934616    -17.570793    -40.791203    -25.086592    -0.695102    6.093354    -4.586683    31.659712    -12.457829    49.804436    -25.698786    -13.862474    64.303688    -12.408964    -1.673745    37.392441    20.336519    -4.306105    -2.012587    -14.847907    38.310730    -18.421680    6.415171    -26.932556    42.196575    0.000000    0.000000    0.000000    -17.665541    -13.283809    -15.333246    14.090808    32.733299    -16.056953    12.283021    3.413154    -20.521849    0.000000    0.000000    0.000000    
15.140907    155.321228    -106.232216    0.557345    -9.587090    46.914063    -4.201796    1.928175    -3.833025    -2.530084    2.473037    -1.247362    2.427844    6.497042    -17.982304    17.972334    0.692458    -16.577618    6.258395    5.424885    -21.692545    -27.385534    6.481841    -77.293739    14.610658    -58.242210    -114.924606    -17.677937    -40.761234    -25.148109    -0.693225    6.081580    -4.581400    31.637335    -12.439686    49.786106    -25.714405    -13.885946    64.284782    -12.420156    -1.696299    37.384895    20.338358    -4.318089    -2.005578    -14.858068    38.322376    -18.417322    6.413756    -26.943680    42.197968    0.000000    0.000000    0.000000    -17.671457    -13.290918    -15.357742    14.088607    32.738132    -16.055891    12.257329    3.413464    -20.509178    0.000000    0.000000    0.000000    
15.138785    155.313721    -106.240234    0.560669    -9.575890    46.915810    -4.218272    1.926184    -3.835420    -2.514329    2.476147    -1.248526    2.429142    6.502479    -17.988415    17.978697    0.660855    -16.578257    6.256305    5.425875    -21.695580    -27.390942    6.512745    -77.274483    14.590312    -58.210712    -114.919365    -17.798506    -40.715401    -25.205856    -0.695639    6.078351    -4.600927    31.641663    -12.444263    49.786896    -25.694168    -13.884691    64.301033    -12.431746    -1.704904    37.364380    20.328842    -4.332133    -2.000566    -14.861079    38.335434    -18.420675    6.428041    -26.937077    42.195480    0.000000    0.000000    0.000000    -17.693308    -13.297558    -15.380365    14.102780    32.744972    -16.051565    12.237911    3.402987    -20.496845    0.000000    0.000000    0.000000    
15.137190    155.309296    -106.250343    0.563652    -9.573594    46.919807    -4.211085    1.916603    -3.844239    -2.530728    2.498739    -1.250461    2.441738    6.510256    -17.985458    17.997269    0.624964    -16.568035    6.268538    5.432841    -21.690393    -27.358150    6.535753    -77.274368    14.635394    -58.218323    -114.842972    -17.824108    -40.691082    -25.213068    -0.691336    6.071521    -4.597079    31.641247    -12.449587    49.777260    -25.684740    -13.891548    64.294914    -12.430192    -1.717036    37.341362    20.324745    -4.341813    -2.016137    -14.878865    38.344196    -18.392612    6.433288    -26.940552    42.193989    0.000000    0.000000    0.000000    -17.709511    -13.296259    -15.404294    14.116243    32.744450    -16.062628    12.221067    3.413834    -20.481850    0.000000    0.000000    0.000000    
